<svg width="110" height="110" viewBox="0 0 110 110" fill="none" xmlns="http://www.w3.org/2000/svg">
<rect width="110" height="110" rx="20" fill="#2560FF"/>
<path d="M15 97.44L22.68 67.584H38.04L25.56 97.44H15ZM27.96 44.448C25.592 44.448 23.64 43.68 22.104 42.144C20.632 40.608 19.896 38.688 19.896 36.384C19.896 34.08 20.664 32.16 22.2 30.624C23.736 29.088 25.656 28.32 27.96 28.32H29.88C32.184 28.32 34.104 29.088 35.64 30.624C37.176 32.16 37.944 34.08 37.944 36.384C37.944 38.688 37.176 40.608 35.64 42.144C34.168 43.68 32.248 44.448 29.88 44.448H27.96Z" fill="white"/>
<path d="M76.5945 83.04C72.2425 83.04 68.7865 81.824 66.2265 79.392C63.6665 76.896 62.3865 73.504 62.3865 69.216L65.0745 72H62.3865V82.08H50.6745V12H62.6745V26.784L62.2905 39.36H65.0745L62.3865 42.144C62.3865 37.856 63.6665 34.496 66.2265 32.064C68.7865 29.568 72.2425 28.32 76.5945 28.32C81.9065 28.32 86.1625 30.144 89.3625 33.792C92.5625 37.44 94.1625 42.368 94.1625 48.576V62.88C94.1625 69.024 92.5625 73.92 89.3625 77.568C86.1625 81.216 81.9065 83.04 76.5945 83.04ZM72.3705 72.672C75.4425 72.672 77.8425 71.776 79.5705 69.984C81.2985 68.192 82.1625 65.632 82.1625 62.304V49.056C82.1625 45.728 81.2985 43.168 79.5705 41.376C77.8425 39.584 75.4425 38.688 72.3705 38.688C69.3625 38.688 66.9945 39.616 65.2665 41.472C63.5385 43.264 62.6745 45.792 62.6745 49.056V62.304C62.6745 65.568 63.5385 68.128 65.2665 69.984C66.9945 71.776 69.3625 72.672 72.3705 72.672Z" fill="white"/>
</svg>
