<svg width="400" height="160" viewBox="0 0 400 160" fill="none" xmlns="http://www.w3.org/2000/svg">
<rect width="400" height="160" rx="20" fill="#2560FF"/>
<path d="M53 125.816L60.68 95.96H76.04L63.56 125.816H53ZM65.96 72.824C63.592 72.824 61.64 72.056 60.104 70.52C58.632 68.984 57.896 67.064 57.896 64.76C57.896 62.456 58.664 60.536 60.2 59C61.736 57.464 63.656 56.696 65.96 56.696H67.88C70.184 56.696 72.104 57.464 73.64 59C75.176 60.536 75.944 62.456 75.944 64.76C75.944 67.064 75.176 68.984 73.64 70.52C72.168 72.056 70.248 72.824 67.88 72.824H65.96Z" fill="white"/>
<path d="M122.274 111.416C117.922 111.416 114.466 110.2 111.906 107.768C109.346 105.272 108.067 101.88 108.067 97.592L110.755 100.376H108.067V110.456H96.3545V40.376H108.354V55.16L107.971 67.736H110.755L108.067 70.52C108.067 66.232 109.346 62.872 111.906 60.44C114.466 57.944 117.922 56.696 122.274 56.696C127.586 56.696 131.843 58.52 135.043 62.168C138.243 65.816 139.842 70.744 139.842 76.952V91.256C139.842 97.4 138.243 102.296 135.043 105.944C131.843 109.592 127.586 111.416 122.274 111.416ZM118.05 101.048C121.122 101.048 123.523 100.152 125.251 98.36C126.979 96.568 127.842 94.008 127.842 90.68V77.432C127.842 74.104 126.979 71.544 125.251 69.752C123.523 67.96 121.122 67.064 118.05 67.064C115.042 67.064 112.674 67.992 110.946 69.848C109.218 71.64 108.354 74.168 108.354 77.432V90.68C108.354 93.944 109.218 96.504 110.946 98.36C112.674 100.152 115.042 101.048 118.05 101.048Z" fill="white"/>
<path d="M176.669 110.456C173.213 110.456 170.173 109.752 167.549 108.344C164.989 106.936 162.973 104.952 161.501 102.392C160.029 99.768 159.293 96.76 159.293 93.368V51.224H142.397V40.376H171.293V93.368C171.293 95.288 171.837 96.824 172.925 97.976C174.077 99.064 175.613 99.608 177.533 99.608H193.469V110.456H176.669Z" fill="white"/>
<path d="M197.943 110.456V99.512H216.376V68.504H200.343V57.656H227.895V99.512H244.215V110.456H197.943ZM221.175 48.824C218.743 48.824 216.823 48.216 215.415 47C214.007 45.72 213.303 44.024 213.303 41.912C213.303 39.8 214.007 38.136 215.415 36.92C216.823 35.64 218.743 35 221.175 35C223.607 35 225.528 35.64 226.936 36.92C228.344 38.136 229.048 39.8 229.048 41.912C229.048 44.024 228.344 45.72 226.936 47C225.528 48.216 223.607 48.824 221.175 48.824Z" fill="white"/>
<path d="M248.882 110.456V57.656H260.594V67.736H263.858L260.594 70.52C260.594 66.168 261.842 62.776 264.338 60.344C266.898 57.912 270.386 56.696 274.802 56.696C279.986 56.696 284.114 58.424 287.186 61.88C290.322 65.336 291.89 69.976 291.89 75.8V110.456H279.89V77.048C279.89 73.848 279.058 71.384 277.394 69.656C275.73 67.928 273.394 67.064 270.386 67.064C267.442 67.064 265.106 67.96 263.378 69.752C261.714 71.544 260.882 74.104 260.882 77.432V110.456H248.882Z" fill="white"/>
<path d="M300.012 110.456V40.376H312.012V78.392H320.365L333.228 57.656H346.668L330.732 83.192L346.956 110.456H333.228L320.365 88.568H312.012V110.456H300.012Z" fill="white"/>
</svg>
